<svg id="Capa_1" data-name="Capa 1" xmlns="http://www.w3.org/2000/svg" xmlns:xlink="http://www.w3.org/1999/xlink" viewBox="0 0 432.37 432.37"><defs><style>.cls-1{fill:url(#Degradado_sin_nombre_18);}</style><linearGradient id="Degradado_sin_nombre_18" x1="3980.03" y1="3859.39" x2="4412.4" y2="3859.39" gradientTransform="translate(4493.85 4280.34) rotate(180)" gradientUnits="userSpaceOnUse"><stop offset="0" stop-color="#165226"/><stop offset="0.06" stop-color="#235e28"/><stop offset="0.26" stop-color="#49812e"/><stop offset="0.45" stop-color="#679c33"/><stop offset="0.64" stop-color="#7caf36"/><stop offset="0.82" stop-color="#89bb38"/><stop offset="1" stop-color="#8dbf39"/></linearGradient></defs><path class="cls-1" d="M236.65,597.85a23,23,0,1,1-32.54,0A23,23,0,0,1,236.65,597.85Zm60.92-80.07c-22.09,0-40,15.35-40,34.28s17.9,34.28,40,34.28,40-15.34,40-34.28S319.66,517.78,297.57,517.78ZM463,420.88c0-22.09-15.35-40-34.29-40s-34.28,17.91-34.28,40,15.35,40,34.28,40S463,443,463,420.88ZM359.2,596.12a23,23,0,1,0,32.54,0A23,23,0,0,0,359.2,596.12Zm109.08-26.67a15.76,15.76,0,0,0-22.12-.15l0,0a.61.61,0,0,1-.07.1l-.09.07v0a15.75,15.75,0,0,0,22.27,22.27h0a.73.73,0,0,0,.08-.09l.09-.07,0,0A15.76,15.76,0,0,0,468.28,569.45ZM120.73,481.94a23,23,0,1,0,0,32.53A23,23,0,0,0,120.73,481.94ZM166.52,461c18.93,0,34.28-17.91,34.29-40s-15.36-40-34.29-40-34.28,17.91-34.28,40S147.59,461,166.52,461Zm-40.15,108.9a15.77,15.77,0,1,0,22.3,0A15.78,15.78,0,0,0,126.37,569.91Zm40.57-228.83a36.53,36.53,0,0,0,24.23,10.59c17.34.84,35.54,5.22,46.7,19.6,15.77,20.35,15.22,54,9.63,77.91-6.36,27.28-29.33,39.32-55.83,40.28a36.27,36.27,0,1,0,37.45,37.45c1-26.5,13-49.47,40.28-55.83,24-5.58,57.56-6.14,77.91,9.64,14.39,11.15,18.77,29.35,19.6,46.69a36.23,36.23,0,0,0,61.52,24.52l0,0,.06-.05h0s0,0,0,0l.05,0h0l.05-.06,0,0a36.23,36.23,0,0,0-24.52-61.52c-17.34-.84-35.54-5.21-46.69-19.6-15.78-20.35-15.22-53.95-9.63-77.91,6.36-27.28,29.32-39.32,55.83-40.28A36.26,36.26,0,1,0,366.15,315c-1,26.5-13,49.47-40.28,55.83-24,5.59-57.56,6.14-77.91-9.63-14.38-11.16-18.76-29.36-19.59-46.7A36.24,36.24,0,0,0,166.84,290l0,0-.06.05h0l0,0,0,0h0l-.06.06,0,0A36.23,36.23,0,0,0,166.94,341.08Zm69.13-95.31a23,23,0,1,0-32.54,0A23,23,0,0,0,236.07,245.77ZM127,272.44a15.76,15.76,0,0,0,22.12.15v0l.08-.1.09-.07,0,0A15.75,15.75,0,0,0,127,250.15h0a.73.73,0,0,0-.08.09l-.09.07v0A15.75,15.75,0,0,0,127,272.44Zm170.7,51.67c22.09,0,40-15.35,40-34.28s-17.91-34.28-40-34.28-40,15.34-40,34.28S275.61,324.11,297.7,324.11ZM122.46,359.38a23,23,0,1,0-32.54,0A23,23,0,0,0,122.46,359.38Zm352.08.57a23,23,0,1,0,0-32.54A23,23,0,0,0,474.54,360Zm-1.73,122.56a23,23,0,1,0,32.54,0A23,23,0,0,0,472.81,482.51ZM391.17,244a23,23,0,1,0-32.54,0A23,23,0,0,0,391.17,244ZM468.91,272a15.77,15.77,0,1,0-22.3,0A15.78,15.78,0,0,0,468.91,272Z" transform="translate(-81.45 -204.76)"/></svg>