<svg id="Capa_1" data-name="Capa 1" xmlns="http://www.w3.org/2000/svg" xmlns:xlink="http://www.w3.org/1999/xlink" viewBox="0 0 263.64 393.4"><defs><style>.cls-1{font-size:77.22px;fill:#12192c;}.cls-1,.cls-3{font-family:Titillium-Bold, Titillium Bold;font-weight:700;}.cls-2{letter-spacing:-0.02em;}.cls-3{font-size:34.62px;fill:#165226;}.cls-4{fill:url(#Degradado_sin_nombre_18);}</style><linearGradient id="Degradado_sin_nombre_18" x1="4064.4" y1="3924.28" x2="4328.03" y2="3924.28" gradientTransform="translate(4493.85 4280.34) rotate(180)" gradientUnits="userSpaceOnUse"><stop offset="0" stop-color="#165226"/><stop offset="0.06" stop-color="#235e28"/><stop offset="0.26" stop-color="#49812e"/><stop offset="0.45" stop-color="#679c33"/><stop offset="0.64" stop-color="#7caf36"/><stop offset="0.82" stop-color="#89bb38"/><stop offset="1" stop-color="#8dbf39"/></linearGradient></defs><text class="cls-1" transform="translate(7.89 348.08)"><tspan class="cls-2">C</tspan><tspan x="43.16" y="0">OMBE</tspan></text><text class="cls-3" transform="translate(72.9 384.75)">PEOPLE</text><path class="cls-4" d="M260.45,463.93a14,14,0,1,1-19.84,0A14,14,0,0,1,260.45,463.93ZM297.6,415.1c-13.47,0-24.39,9.36-24.39,20.91s10.92,20.9,24.39,20.9S322,447.55,322,436,311.07,415.1,297.6,415.1ZM398.49,356c0-13.47-9.36-24.39-20.9-24.39S356.68,342.55,356.68,356s9.36,24.39,20.91,24.39S398.49,369.49,398.49,356ZM335.18,462.87a14,14,0,1,0,19.84,0A14,14,0,0,0,335.18,462.87Zm66.51-16.26a9.61,9.61,0,0,0-13.49-.09h0l-.05.06-.05,0h0a9.6,9.6,0,0,0,13.58,13.58h0l0,0,.06-.05h0A9.61,9.61,0,0,0,401.69,446.61ZM189.77,393.25a14,14,0,1,0,0,19.84A14,14,0,0,0,189.77,393.25Zm27.92-12.76c11.54,0,20.9-10.92,20.9-24.39s-9.36-24.39-20.9-24.39-20.9,10.92-20.9,24.39S206.14,380.49,217.69,380.49Zm-24.48,66.4a9.61,9.61,0,1,0,13.59,0A9.61,9.61,0,0,0,193.21,446.89ZM218,307.36a22.22,22.22,0,0,0,14.77,6.46c10.57.51,21.67,3.18,28.47,11.95,9.62,12.41,9.28,32.9,5.88,47.51-3.88,16.63-17.89,24-34,24.56a22.11,22.11,0,1,0,22.84,22.84c.59-16.17,7.93-30.17,24.56-34.05,14.61-3.4,35.1-3.74,47.51,5.88,8.77,6.8,11.44,17.89,11.95,28.47a22.09,22.09,0,0,0,37.51,14.95h0l0,0h0a0,0,0,0,0,0,0l0,0h0l0,0h0a22.09,22.09,0,0,0-14.95-37.51c-10.58-.51-21.68-3.18-28.48-11.95-9.62-12.41-9.28-32.9-5.87-47.5,3.88-16.64,17.88-24,34-24.57a22.11,22.11,0,1,0-22.84-22.83c-.58,16.16-7.92,30.16-24.56,34-14.6,3.41-35.09,3.75-47.5-5.87-8.77-6.8-11.44-17.9-12-28.48a22.34,22.34,0,0,0-6.46-14.77,22.09,22.09,0,0,0-31.05-.18h0l0,0h0l0,0,0,0h0l0,0h0A22.09,22.09,0,0,0,218,307.36Zm42.15-58.11a14,14,0,1,0-19.84,0A14,14,0,0,0,260.1,249.25Zm-66.51,16.26a9.61,9.61,0,0,0,13.49.09h0l0-.05.06-.05h0a9.6,9.6,0,0,0-13.58-13.58h0l-.05.06s0,0,0,0h0A9.6,9.6,0,0,0,193.59,265.51ZM297.68,297c13.47,0,24.38-9.36,24.38-20.91s-10.91-20.9-24.38-20.9-24.39,9.36-24.39,20.9S284.21,297,297.68,297Zm-106.85,21.5a14,14,0,1,0-19.85,0A14,14,0,0,0,190.83,318.52Zm214.67.35a14,14,0,1,0,0-19.84A14,14,0,0,0,405.5,318.87Zm-1.05,74.73a14,14,0,1,0,19.84,0A14,14,0,0,0,404.45,393.6ZM354.67,248.19a14,14,0,1,0-19.84,0A14,14,0,0,0,354.67,248.19Zm47.4,17a9.62,9.62,0,1,0-13.6,0A9.61,9.61,0,0,0,402.07,265.23Z" transform="translate(-165.82 -224.24)"/></svg>