<svg id="Capa_1" data-name="Capa 1" xmlns="http://www.w3.org/2000/svg" xmlns:xlink="http://www.w3.org/1999/xlink" viewBox="0 0 432.37 645.19"><defs><style>.cls-1{font-size:126.64px;fill:#12192c;}.cls-1,.cls-3{font-family:Titillium-Bold, Titillium Bold;font-weight:700;}.cls-2{letter-spacing:-0.02em;}.cls-3{font-size:56.77px;fill:#165226;}.cls-4{fill:url(#Degradado_sin_nombre_18);}</style><linearGradient id="Degradado_sin_nombre_18" x1="3980.03" y1="3965.8" x2="4412.4" y2="3965.8" gradientTransform="translate(4493.85 4280.34) rotate(180)" gradientUnits="userSpaceOnUse"><stop offset="0" stop-color="#165226"/><stop offset="0.06" stop-color="#235e28"/><stop offset="0.26" stop-color="#49812e"/><stop offset="0.45" stop-color="#679c33"/><stop offset="0.64" stop-color="#7caf36"/><stop offset="0.82" stop-color="#89bb38"/><stop offset="1" stop-color="#8dbf39"/></linearGradient></defs><text class="cls-1" transform="translate(12.93 570.87)"><tspan class="cls-2">C</tspan><tspan x="70.79" y="0">OMBE</tspan></text><text class="cls-3" transform="translate(119.56 631)">PEOPLE</text><path class="cls-4" d="M236.65,491.44a23,23,0,1,1-32.54,0A23,23,0,0,1,236.65,491.44Zm60.92-80.07c-22.09,0-40,15.35-40,34.28s17.9,34.28,40,34.28,40-15.35,40-34.28S319.66,411.37,297.57,411.37ZM463,314.47c0-22.09-15.35-40-34.29-40s-34.28,17.91-34.28,40,15.35,40,34.28,40S463,336.56,463,314.47ZM359.2,489.71a23,23,0,1,0,32.54,0A23,23,0,0,0,359.2,489.71ZM468.28,463a15.76,15.76,0,0,0-22.12-.15l0,0a.31.31,0,0,1-.07.09L446,463v0a15.75,15.75,0,0,0,22.27,22.26l0,0,.08-.09a.31.31,0,0,1,.09-.07l0,0A15.76,15.76,0,0,0,468.28,463ZM120.73,375.52a23,23,0,1,0,0,32.54A23,23,0,0,0,120.73,375.52Zm45.79-20.92c18.93,0,34.28-17.91,34.29-40s-15.36-40-34.29-40-34.28,17.91-34.28,40S147.59,354.6,166.52,354.6ZM126.37,463.5a15.77,15.77,0,1,0,22.3,0A15.76,15.76,0,0,0,126.37,463.5Zm40.57-228.83a36.62,36.62,0,0,0,24.23,10.59c17.34.83,35.54,5.21,46.7,19.6,15.77,20.35,15.22,53.95,9.63,77.91-6.36,27.28-29.33,39.31-55.83,40.28a36.27,36.27,0,1,0,37.45,37.45c1-26.5,13-49.47,40.28-55.83,24-5.59,57.56-6.14,77.91,9.63,14.39,11.16,18.77,29.36,19.6,46.7a36.23,36.23,0,0,0,61.52,24.52l0,0,.06-.05h0l0,0,.05,0h0l.05-.06,0,0A36.24,36.24,0,0,0,404.1,383.8c-17.34-.83-35.54-5.21-46.69-19.59-15.78-20.35-15.22-53.95-9.63-77.91C354.14,259,377.1,247,403.61,246a36.26,36.26,0,1,0-37.46-37.46c-1,26.51-13,49.47-40.28,55.84-24,5.58-57.56,6.14-77.91-9.64-14.38-11.15-18.76-29.35-19.59-46.69a36.24,36.24,0,0,0-61.53-24.52l0,0-.06.05h0l0,.05,0,0h0l-.06.06,0,0A36.23,36.23,0,0,0,166.94,234.67Zm69.13-95.31a23,23,0,1,0-32.54,0A23,23,0,0,0,236.07,139.36ZM127,166a15.76,15.76,0,0,0,22.12.15h0l.08-.09.09-.07,0,0A15.75,15.75,0,0,0,127,143.74v0l-.08.1-.09.07v0A15.75,15.75,0,0,0,127,166ZM297.7,217.7c22.09,0,40-15.35,40-34.28s-17.91-34.29-40-34.29-40,15.35-40,34.29S275.61,217.7,297.7,217.7ZM122.46,253a23,23,0,1,0-32.54,0A23,23,0,0,0,122.46,253Zm352.08.57a23,23,0,1,0,0-32.54A23,23,0,0,0,474.54,253.54ZM472.81,376.1a23,23,0,1,0,32.54,0A23,23,0,0,0,472.81,376.1ZM391.17,137.63a23,23,0,1,0-32.54,0A23,23,0,0,0,391.17,137.63Zm77.74,27.94a15.77,15.77,0,1,0-22.3,0A15.78,15.78,0,0,0,468.91,165.57Z" transform="translate(-81.45 -98.35)"/></svg>