<svg id="Capa_1" data-name="Capa 1" xmlns="http://www.w3.org/2000/svg" xmlns:xlink="http://www.w3.org/1999/xlink" viewBox="0 0 263.64 263.64"><defs><style>.cls-1{fill:url(#Degradado_sin_nombre_18);}</style><linearGradient id="Degradado_sin_nombre_18" x1="4064.4" y1="3859.39" x2="4328.03" y2="3859.39" gradientTransform="translate(4493.85 4280.34) rotate(180)" gradientUnits="userSpaceOnUse"><stop offset="0" stop-color="#165226"/><stop offset="0.06" stop-color="#235e28"/><stop offset="0.26" stop-color="#49812e"/><stop offset="0.45" stop-color="#679c33"/><stop offset="0.64" stop-color="#7caf36"/><stop offset="0.82" stop-color="#89bb38"/><stop offset="1" stop-color="#8dbf39"/></linearGradient></defs><path class="cls-1" d="M260.45,528.81a14,14,0,1,1-19.84,0A14,14,0,0,1,260.45,528.81ZM297.6,480c-13.47,0-24.39,9.36-24.39,20.9s10.92,20.91,24.39,20.91S322,512.44,322,500.89,311.07,480,297.6,480Zm100.89-59.08c0-13.47-9.36-24.39-20.9-24.39s-20.91,10.92-20.91,24.39,9.36,24.38,20.91,24.38S398.49,434.37,398.49,420.91ZM335.18,527.76a14,14,0,1,0,19.84,0A14,14,0,0,0,335.18,527.76Zm66.51-16.26a9.6,9.6,0,0,0-13.49-.1h0l-.05.06s0,0-.05.05h0a9.6,9.6,0,0,0,13.58,13.58h0l0-.05.06,0h0A9.6,9.6,0,0,0,401.69,511.5ZM189.77,458.13a14,14,0,1,0,0,19.84A14,14,0,0,0,189.77,458.13Zm27.92-12.76c11.54,0,20.9-10.92,20.9-24.38s-9.36-24.39-20.9-24.39-20.9,10.92-20.9,24.38S206.14,445.37,217.69,445.37Zm-24.48,66.41a9.61,9.61,0,1,0,13.59,0A9.61,9.61,0,0,0,193.21,511.78ZM218,372.25a22.31,22.31,0,0,0,14.77,6.46c10.57.5,21.67,3.18,28.47,12,9.62,12.4,9.28,32.89,5.88,47.5-3.88,16.64-17.89,24-34,24.56a22.11,22.11,0,1,0,22.84,22.84c.59-16.16,7.93-30.17,24.56-34,14.61-3.41,35.1-3.75,47.51,5.87,8.77,6.8,11.44,17.9,11.95,28.47a22.08,22.08,0,0,0,37.51,14.95h0l0,0h0l0,0,0,0h0l0,0h0a22.1,22.1,0,0,0-.18-31.06,22.34,22.34,0,0,0-14.77-6.46c-10.58-.51-21.68-3.17-28.48-11.95-9.62-12.4-9.28-32.89-5.87-47.5,3.88-16.64,17.88-24,34-24.56a22.11,22.11,0,1,0-22.84-22.84c-.58,16.16-7.92,30.16-24.56,34-14.6,3.41-35.09,3.75-47.5-5.87-8.77-6.8-11.44-17.9-12-28.47a22.36,22.36,0,0,0-6.46-14.78,22.09,22.09,0,0,0-31.05-.17h0l0,0h0l0,0,0,0h0l0,0h0A22.1,22.1,0,0,0,218,372.25Zm42.15-58.12a14,14,0,1,0-19.84,0A14,14,0,0,0,260.1,314.13Zm-66.51,16.26a9.61,9.61,0,0,0,13.49.1h0l0-.05.06-.05h0A9.6,9.6,0,0,0,193.6,316.8h0l-.05.06,0,0h0A9.59,9.59,0,0,0,193.59,330.39ZM297.68,361.9c13.47,0,24.38-9.36,24.38-20.9s-10.91-20.91-24.38-20.91-24.39,9.36-24.39,20.91S284.21,361.9,297.68,361.9ZM190.83,383.41a14,14,0,1,0-19.85,0A14.06,14.06,0,0,0,190.83,383.41Zm214.67.35a14,14,0,1,0,0-19.85A14,14,0,0,0,405.5,383.76Zm-1.05,74.72a14,14,0,1,0,19.84,0A14,14,0,0,0,404.45,458.48Zm-49.78-145.4a14,14,0,1,0-19.84,0A14,14,0,0,0,354.67,313.08Zm47.4,17a9.62,9.62,0,1,0-13.6,0A9.61,9.61,0,0,0,402.07,330.11Z" transform="translate(-165.82 -289.13)"/></svg>